<svg id="Layer_2" data-name="Layer 2" xmlns="http://www.w3.org/2000/svg" viewBox="0 0 565.54 288.34"><defs><style>.cls-1{fill:#fff;}.cls-2{fill:#231f20;}.cls-3{fill:#00a28f;}.cls-4{fill:#f04930;}</style></defs><title>plate</title><rect class="cls-1" x="3.5" y="3.5" width="558.54" height="281.34" rx="20" ry="20"/><path class="cls-2" d="M558.42,346.59H39.89a23.53,23.53,0,0,1-23.5-23.5V81.75a23.53,23.53,0,0,1,23.5-23.5H558.42a23.53,23.53,0,0,1,23.5,23.5V323.09A23.53,23.53,0,0,1,558.42,346.59ZM39.89,65.25a16.52,16.52,0,0,0-16.5,16.5V323.09a16.52,16.52,0,0,0,16.5,16.5H558.42a16.52,16.52,0,0,0,16.5-16.5V81.75a16.52,16.52,0,0,0-16.5-16.5H39.89Z" transform="translate(-16.39 -58.25)"/><rect class="cls-3" x="459.6" y="28.22" width="84.55" height="49.59"/><path class="cls-4" d="M155.9,111c0.6-.91,2.39-5.32,2.52-5.57,1.32-2.49,7.41-10.25,7.41-10.25a47.65,47.65,0,0,1,5.94-6.1c1.49-1.13,7.88-7.83,13.27-9.29,11.77-3.19,5.3,12.93,1.49,18.46-1,1.41-8.18,13.06-9.16,5.32-0.32-2.53,4.07-4,5.18-5.11a55.3,55.3,0,0,0,3.32-4.6,17.84,17.84,0,0,0,2.93-6.23c1.63-6.86-3.3-4.32-6.76-2.25C172.72,91,167.5,102,163.43,111.53c-2,4.77-7.34,13.57-3.84,17.73,4.26,5.07,16.71-7,19.84-10,2.31-2.18,4.92-4.16,6.84-6.14,1.57-1.61,6.65-6.63,4.74-.95-1,2.93-4.94,6.16-7.09,8.29-0.81.8-8.24,7.8-9.41,8.63a50.82,50.82,0,0,1-4.6,3.12,25.17,25.17,0,0,1-3.42,1.15c-1.38.51-6.08,1.21-7.75,0.49a9.39,9.39,0,0,1-5.1-5.64C151.24,122.23,153.77,116.72,155.9,111Z" transform="translate(-16.39 -58.25)"/><path class="cls-4" d="M221,122.66c1.14-.93,3.14-3.66,4.38-3.87,2.33-.39,1.59,2.1.68,3.95-1.28,2.58-3.86,4.48-6.35,6-10.12,6.19-6.3-6.58-7.83-6.58-2,0-7.82,6.58-9.51,7.87-4.9,3.74-12.92,5.83-12-3.15,0.5-4.92,6.86-10.56,11.12-13.25,2.64-1.67,5.81-3.14,8.69-3.22,0.68,0,.87-0.66,1.68-0.3,1,0.43,2.78,4.18,2.65,4.18,1.8,0,1.76-4.31,4.91-2.88,3.32,1.5-.22,5.41-1.11,7.21-0.58,1.17-2.65,6-1.32,7.17C218.75,125.35,219.72,123.74,221,122.66Zm-8-6.23c0,0.21-3.05-.2-3.42-0.16-4.83.46-8.81,3.23-11.83,6.89-2.22,2.68-4.66,8,1.32,4.82C202,126.46,213,118.92,213,116.44Z" transform="translate(-16.39 -58.25)"/><path class="cls-4" d="M229.86,123.53c-1.28-10.52,8.46-22.06,13.4-29.79a46,46,0,0,1,4.62-6c1.55-1.76,2.74-4.68,5.11-5.57,5.73-2.14,5.1,4.22,3.83,7.26-0.95,2.28-2.64,5.88-3.71,7.79a183.06,183.06,0,0,1-9.81,16c-1.16,1.66-3.68,5.79-5.13,6.92-2.06,1.59-1.72-1.35-3.48.91-0.49.63-.26,4.2-0.19,4.8,0.7,5.4,5.64,2.11,7.93-.23,1.61-1.64,3.28-3.67,5-5.59s3.42-4.49,3.92-.89c0.57,4.08-8,10.94-11.35,12.66-2.61,1.33-6.24,1.42-8.36-.72-2.46-2.48-1.24-5-1.24-6.74Zm17.48-22.14c0.56-.81,8.08-13.19,6.27-13.19-3.26,2.28-12.09,15.65-12.83,17-1.26,2.23-4.22,7.79-3.82,8.47C237.54,113.91,244.95,104.86,247.34,101.39Z" transform="translate(-16.39 -58.25)"/><path class="cls-4" d="M248,119a52,52,0,0,0,4.77-3.59c2-1.48,6.44-5.66,9.21-4.81,4.54,1.39,1.53,7.35.58,9.92-0.28.77-1.32,5.77-1.89,6.06,2.22,2.26,9.32-6.15,11.36-6.64,5-1.22-2.25,6.42-3.69,7.57a36.12,36.12,0,0,1-5.44,3.92c-13,7.08-5.24-14.78-4.76-14.78-1.88,0-4.11,1.92-5.42,2.87C250.56,121.14,246.61,124.24,248,119Zm17.81-20.61c-0.74-2.52.94-5.52,3.58-3.89C274.55,97.72,266.51,103.48,265.84,98.42Z" transform="translate(-16.39 -58.25)"/><path class="cls-4" d="M268,144.35c0.7-2.38,1.86-4.7,2.78-7,0.49-1.25,1.26-2.37,1.67-3.68a16,16,0,0,1,1.36-2.19,11.42,11.42,0,0,1-1.69-1.61c0-.63,2.65-1.5,2.72-1.61a25,25,0,0,0,1.53-3,52.87,52.87,0,0,0,1.94-5.15c-1.76-.13-4.7,6.22-6.51,5.4-2.89-1.3,1-5.32,1.86-6.22,5.49-5.7,9.68-9.51,12.3-17.2,1.83-5.39,3.84-11.62,6.7-16.4s5.1-3.21,5.48,2a11.07,11.07,0,0,1-.25,3.3c-0.17.79-2,3.91-2,4,0,5.14-5,10.26-7.67,15.32-0.84,1.61-7.34,13.23-6.35,15.19,2.66,0,5.16-3,6.9-4.49a32.58,32.58,0,0,1,7.52-4.6c2.56-1,3.06-1.29,1.36,1.83-2,3.71-8,6.43-11.57,8.86-0.67.46-4.47,2.67-4.58,3.55-0.06.47,2.52,2.93,2.68,3.15a9.15,9.15,0,0,1,1.91,6c-0.19,3.78-3,6.52-5.09,9.46a56.18,56.18,0,0,1-4.45,6.18,71.22,71.22,0,0,1-5.15,5.32,42.62,42.62,0,0,1-3.71,3.13c-2.11,1.29-2.47,1.92-4.11,0a9.47,9.47,0,0,1-.88-3.84C262.93,155,266.45,149.16,268,144.35Zm8.54-7.92c0.53,1.94-.62,3.92-1.4,5.65a15.88,15.88,0,0,0-1.61,4c-0.46,1.61-5.38,13.56-4.62,13.56,0.56,0,4.28-4.1,4.78-4.66a39.67,39.67,0,0,0,4.62-7.34c1.47-2.79,4.07-7.27,3.38-10.64-0.28-1.38-1.67-3.87-3.22-3.63C277.16,133.58,277.63,135.82,276.5,136.43Z" transform="translate(-16.39 -58.25)"/><path class="cls-4" d="M313.54,129c-3.65,4-11,7.28-15.65,3.13a7.37,7.37,0,0,1-2.84-5.61c-0.06-1.28,1.83-6.08,1-6.76-1,1.44-3.86,3.42-4.44,2.27-1.24-2.45,3.88-6,5.62-7.21,3.24-2.28,7.64-4.82,11.63-5.24A6.49,6.49,0,0,1,313,110c3.5,1.31,2.52,1.31,2.52,3.88,0,0.67,2.34,3.46,2.44,5.24a8.6,8.6,0,0,1-.4,3.17C317,124.21,315.45,128.06,313.54,129Zm-12.81,1.07c0.91,3.11,6,0,7.49-1.32a15.6,15.6,0,0,0,4-5.52c0.8-2.14.19-2.5,0.14-4.45a2,2,0,0,1-.88-1.94,6,6,0,0,1,1.94-2.72s-5.63,2-6.32,2.39a11.13,11.13,0,0,0-3.61,3.33C301.26,122.65,299.24,126.59,300.73,130.08Z" transform="translate(-16.39 -58.25)"/><path class="cls-4" d="M330.36,113.3c3.92-2.32,8.25-8.94,11.13-2.08,2.8,6.66-.8,7.68-3.92,12.74-1.61,2.61-3.24,5.46.87,5,2.41-.27,5.58-2.62,7.52-4s6.84-7,7.69-4.74c1.52,4.13-9.33,10.51-11.64,11.95-3.14,1.94-7.08,3.14-9.67-.55-4.08-5.83,3.15-10.13,4-15.31,0.67-4-2.61-.79-4.69.64s-3.69,2.92-5.74,4.19c-2.73,1.69-6.85,1.86-3.07-2.35C324.75,116.65,328.2,115.27,330.36,113.3Z" transform="translate(-16.39 -58.25)"/><path class="cls-4" d="M389.13,125.22c-0.65,0,8-6.13,8-5.32-0.65,4.46-7.12,11.36-11.52,12.9-8.78,3.08-6-9.06-7.43-12.69-0.94-2.44-.54-2-3.37-0.69a18.31,18.31,0,0,0-4.42,2.93c-4,3.22-6.88,5.54-9.94,8.43-4.92,4.66-6.68-1.36-3.89-5.69,1.82-2.82,3.21-4,4.41-7.34-1.24,1.14-5.23,4.51-6.73,4.82-4.46,1-1.17-3.88.89-5.42,1.52-1.14,6.38-4.92,7.82-5,4.41-.24,4.18,8.4,3.71,8.4,1.9,0,6.28-4.77,8.11-5.85,3.47-2,8.12-3.57,9.78,1.63,0.7,2.19-.06,5.07-0.22,7.31-0.11,1.53-1.67,1.89,0,3.56C386.66,129.49,386.72,125.22,389.13,125.22Z" transform="translate(-16.39 -58.25)"/><path class="cls-4" d="M396.49,119a52,52,0,0,0,4.77-3.59c2-1.48,6.44-5.66,9.21-4.81,4.54,1.39,1.53,7.35.58,9.92-0.28.77-1.32,5.77-1.89,6.06,2.22,2.26,9.33-6.15,11.36-6.64,5-1.22-2.25,6.42-3.69,7.57a36.1,36.1,0,0,1-5.44,3.92c-13,7.08-5.24-14.78-4.76-14.78-1.88,0-4.11,1.92-5.42,2.87C399,121.14,395.07,124.24,396.49,119ZM414.3,98.42c-0.75-2.52.94-5.52,3.58-3.89C423,97.72,415,103.48,414.3,98.42Z" transform="translate(-16.39 -58.25)"/><path class="cls-4" d="M453.4,122.66c1.14-.93,3.14-3.66,4.38-3.87,2.33-.39,1.59,2.1.68,3.95-1.28,2.58-3.86,4.48-6.35,6-10.12,6.19-6.3-6.58-7.83-6.58-2,0-7.82,6.58-9.51,7.87-4.9,3.74-12.92,5.83-12-3.15,0.5-4.92,6.86-10.56,11.12-13.25,2.64-1.67,5.81-3.14,8.69-3.22,0.68,0,.87-0.66,1.68-0.3,1,0.43,2.78,4.18,2.65,4.18,1.8,0,1.76-4.31,4.91-2.88,3.32,1.5-.22,5.41-1.11,7.21-0.58,1.18-2.65,6-1.32,7.17C451.14,125.35,452.11,123.74,453.4,122.66Zm-13.69,0c0.45-2.46,5.73-3.74,5.73-6.23,0,0.21-3.05-.2-3.42-0.16-4.83.46-8.81,3.23-11.83,6.89-2.22,2.67-4.66,8,1.32,4.82,2.86-1.52,5.28-4,8.21-5.32C439.82,122.06,439.3,122.85,439.71,122.66Z" transform="translate(-16.39 -58.25)"/></svg>